<svg width="64" height="64" viewBox="0 0 64 64" fill="none" xmlns="http://www.w3.org/2000/svg" role="img" aria-labelledby="title">
  <title id="title">PearBlog Favicon</title>
  <defs>
    <linearGradient id="g" x1="8" y1="7" x2="50" y2="57" gradientUnits="userSpaceOnUse">
      <stop offset="0" stop-color="#60A5FA"/>
      <stop offset="1" stop-color="#4ADE80"/>
    </linearGradient>
  </defs>
  <path d="M32 12C38 12 43 15 45 20C52 22 56 28 55 35C54 44 47 51 38 52C26 53 15 46 14 35C13 28 17 23 22 20C24 15 27 12 32 12Z" fill="url(#g)"/>
  <path d="M31 11C32 7 36 4 41 4" stroke="#8B5E34" stroke-width="2.5" stroke-linecap="round"/>
  <path d="M41 5C45 4 49 5 51 8C46 10 42 9 40 7" fill="#22C55E"/>
  <circle cx="32" cy="32" r="7" stroke="#F8FAFC" stroke-width="2"/>
  <circle cx="32" cy="32" r="4" stroke="#F8FAFC" stroke-width="1.6"/>
  <circle cx="32" cy="32" r="1.2" fill="#F8FAFC"/>
</svg>
