<svg width="512" height="512" viewBox="0 0 512 512" xmlns="http://www.w3.org/2000/svg" fill="#4ADE80" role="img" aria-labelledby="title">
  <title id="title">PearBlog Safari Pinned Tab</title>
  <path d="M256 110C304 110 338 137 350 176C404 189 437 238 428 298C418 367 358 424 287 430C200 438 123 380 111 300C103 244 130 194 174 176C184 137 213 110 256 110Z"/>
  <path d="M248 106C258 77 284 57 316 57" stroke="#4ADE80" stroke-width="18" stroke-linecap="round" fill="none"/>
  <path d="M320 67C349 58 375 67 391 89C360 104 331 97 312 78"/>
</svg>
