<svg width="1200" height="600" viewBox="0 0 1200 600" fill="none" xmlns="http://www.w3.org/2000/svg" role="img" aria-labelledby="title desc">
  <title id="title">PearBlog Twitter Card</title>
  <desc id="desc">Twitter card image for PearBlog social sharing.</desc>
  <defs>
    <linearGradient id="bg" x1="0" y1="0" x2="1200" y2="600" gradientUnits="userSpaceOnUse">
      <stop offset="0" stop-color="#0A1320"/>
      <stop offset="1" stop-color="#101F34"/>
    </linearGradient>
    <linearGradient id="accent" x1="260" y1="200" x2="760" y2="440" gradientUnits="userSpaceOnUse">
      <stop offset="0" stop-color="#60A5FA"/>
      <stop offset="1" stop-color="#4ADE80"/>
    </linearGradient>
    <linearGradient id="pear" x1="122" y1="170" x2="295" y2="430" gradientUnits="userSpaceOnUse">
      <stop offset="0" stop-color="#60A5FA"/>
      <stop offset="1" stop-color="#4ADE80"/>
    </linearGradient>
  </defs>

  <rect width="1200" height="600" fill="url(#bg)"/>

  <g transform="translate(80 95)">
    <path d="M140 68C171 68 193 85 201 111C236 119 257 151 251 190C244 235 205 272 159 276C103 281 53 243 46 192C41 156 59 123 87 111C93 85 112 68 140 68Z" fill="url(#pear)"/>
    <path d="M135 66C141 47 158 34 179 34" stroke="#A67C52" stroke-width="10" stroke-linecap="round"/>
    <path d="M182 40C200 34 217 40 228 54C209 64 191 60 179 47" fill="#4ADE80"/>
    <circle cx="140" cy="175" r="37" stroke="#F8FAFC" stroke-width="8"/>
    <circle cx="140" cy="175" r="20" stroke="#F8FAFC" stroke-width="6"/>
    <circle cx="140" cy="175" r="5" fill="#F8FAFC"/>
  </g>

  <text x="370" y="260" font-family="Poppins, Montserrat, Segoe UI, Arial, sans-serif" font-size="125" font-weight="800" fill="#F8FAFC">Pear</text>
  <text x="680" y="260" font-family="Poppins, Montserrat, Segoe UI, Arial, sans-serif" font-size="125" font-weight="800" fill="url(#accent)">Blog</text>
  <text x="370" y="332" font-family="Inter, Segoe UI, Arial, sans-serif" font-size="40" font-weight="500" fill="#D0DEEF">AI Content Engine</text>
  <text x="370" y="384" font-family="Inter, Segoe UI, Arial, sans-serif" font-size="33" font-weight="500" fill="#9CB2CB">Publish smarter. Rank faster. Grow predictably.</text>
</svg>
